<svg width="127" height="95" viewBox="0 0 127 95" fill="none" xmlns="http://www.w3.org/2000/svg">
<path d="M0.996 9H2.076V5.592H3.816C5.328 5.592 7.14 5.352 7.14 3.144C7.14 0.864 5.328 0.599999 3.828 0.599999H0.996V9ZM2.076 4.668V1.536H3.828C4.848 1.536 6.084 1.56 6.084 3.144C6.084 4.596 4.848 4.668 3.816 4.668H2.076ZM8.24512 9H9.32513V0.599999H8.24512V9ZM16.3533 8.112C16.1973 8.148 16.1013 8.16 16.0053 8.16C15.6573 8.16 15.6573 8.016 15.6573 7.704V4.836C15.6573 3.528 14.8893 2.856 13.3773 2.856C12.6093 2.856 11.9733 3.012 11.5413 3.3C11.0733 3.612 10.8213 4.14 10.7973 4.86L11.8533 5.004C11.8533 4.092 12.2733 3.708 13.3173 3.708C13.8453 3.708 14.2413 3.864 14.4093 4.104C14.5893 4.356 14.6133 4.656 14.6133 5.196L12.6333 5.58C11.6853 5.76 10.5933 6.12 10.5933 7.416C10.5933 8.592 11.6013 9.144 12.6093 9.144C13.6293 9.144 14.2893 8.796 14.6253 8.112C14.6853 8.736 15.0453 9.048 15.7053 9.048C15.9453 9.048 16.1493 9.036 16.3773 9L16.3533 8.112ZM14.6133 6.732C14.6133 7.596 14.0853 8.28 12.7773 8.28C12.1893 8.28 11.6973 7.968 11.6973 7.404C11.6973 6.72 12.1653 6.54 12.8013 6.396L14.6133 6V6.732ZM20.0018 9.144C21.3938 9.144 22.4258 8.376 22.6537 7.164L21.6338 7.056C21.4058 7.92 20.9258 8.28 20.0018 8.28C18.5498 8.28 18.2138 7.356 18.2138 6C18.2138 4.68 18.5378 3.72 20.0018 3.72C21.0818 3.72 21.4418 4.404 21.6218 5.1L22.6298 4.908C22.3898 3.768 21.5258 2.856 20.0018 2.856C18.1658 2.856 17.0258 4.152 17.0258 6C17.0258 7.968 18.1658 9.144 20.0018 9.144ZM28.6328 4.044C28.1408 3.264 27.2408 2.856 26.2928 2.856C25.4288 2.856 24.6968 3.156 24.1688 3.756C23.6648 4.32 23.4128 5.1 23.4128 5.988C23.4128 6.924 23.6408 7.704 24.1448 8.268C24.6608 8.868 25.3808 9.144 26.3048 9.144C27.8288 9.144 28.7888 8.424 29.0528 7.02L28.0088 6.936C27.8648 7.848 27.3128 8.28 26.2928 8.28C25.1648 8.28 24.6128 7.644 24.5888 6.324H29.1367C29.1848 5.472 28.9928 4.62 28.6328 4.044ZM26.3048 3.732C26.9528 3.732 27.3968 3.924 27.7088 4.38C27.9008 4.668 28.0208 5.124 28.0328 5.448H24.6008C24.6008 5.148 24.6728 4.74 24.8888 4.38C25.1288 3.984 25.6328 3.732 26.3048 3.732ZM30.2624 4.692H31.4744V3.42H30.2624V4.692ZM30.2744 10.572C31.0304 10.428 31.4744 9.876 31.4744 9.024V7.704H30.2624V9H30.8264C30.8144 9.66 30.5384 9.876 30.2744 9.972V10.572ZM0.996 21H2.064V15.924C2.064 15.672 2.04 14.688 2.004 14.004H2.016C2.28 14.76 2.544 15.516 2.7 15.924L4.656 21H5.76L7.716 15.924C7.872 15.516 8.088 14.904 8.4 14.004H8.412C8.376 14.688 8.352 15.672 8.352 15.924V21H9.42V12.6H7.848L6.072 17.352C5.748 18.228 5.4 19.236 5.22 19.788H5.208C5.028 19.236 4.74 18.408 4.344 17.352L2.568 12.6H0.996V21ZM13.7679 21.144C15.5679 21.144 16.7559 19.884 16.7559 18C16.7559 16.188 15.6039 14.856 13.7679 14.856C11.9079 14.856 10.7679 16.176 10.7679 18C10.7679 19.956 11.8959 21.144 13.7679 21.144ZM13.7679 20.292C13.1679 20.292 12.7479 20.136 12.4599 19.836C12.0759 19.44 11.9319 18.804 11.9319 18C11.9319 17.196 12.0759 16.56 12.4599 16.164C12.7479 15.864 13.1799 15.708 13.7679 15.708C14.3799 15.708 14.7999 15.888 15.0879 16.2C15.4479 16.596 15.5919 17.22 15.5919 18C15.5919 18.78 15.4479 19.392 15.0999 19.788C14.8119 20.112 14.3799 20.292 13.7679 20.292ZM24.7994 14.856C24.0674 14.856 23.6834 15.072 23.3954 15.312C23.1194 15.552 22.9394 15.804 22.8194 16.128C22.5314 15.324 21.8474 14.856 20.8994 14.856C20.2034 14.856 19.7714 15.084 19.4954 15.312C19.2434 15.516 19.1234 15.72 19.0514 15.9V15H17.9834V21H19.0514V17.688C19.0514 16.728 19.3154 16.332 19.6034 16.068C19.8194 15.876 20.1194 15.744 20.4914 15.744C20.7194 15.744 21.1634 15.756 21.4994 16.08C21.8594 16.416 21.8594 16.908 21.8594 17.472V21H22.9634V17.688C22.9634 16.728 23.2274 16.332 23.5154 16.068C23.7434 15.864 24.0434 15.744 24.4034 15.744C24.6314 15.744 25.0754 15.756 25.4114 16.08C25.7714 16.416 25.7714 16.908 25.7714 17.472V21H26.8754V17.112C26.8754 15.624 26.1434 14.856 24.7994 14.856ZM33.2734 16.044C32.7814 15.264 31.8814 14.856 30.9334 14.856C30.0694 14.856 29.3374 15.156 28.8094 15.756C28.3054 16.32 28.0534 17.1 28.0534 17.988C28.0534 18.924 28.2814 19.704 28.7854 20.268C29.3014 20.868 30.0214 21.144 30.9454 21.144C32.4694 21.144 33.4294 20.424 33.6934 19.02L32.6494 18.936C32.5054 19.848 31.9534 20.28 30.9334 20.28C29.8054 20.28 29.2534 19.644 29.2294 18.324H33.7774C33.8254 17.472 33.6334 16.62 33.2734 16.044ZM30.9454 15.732C31.5934 15.732 32.0374 15.924 32.3494 16.38C32.5414 16.668 32.6614 17.124 32.6734 17.448H29.2414C29.2414 17.148 29.3134 16.74 29.5294 16.38C29.7694 15.984 30.2734 15.732 30.9454 15.732ZM39.715 15.528C39.283 15.072 38.719 14.856 37.927 14.856C36.967 14.856 36.379 15.24 36.079 15.912V15H34.999V21H36.079V17.688C36.079 15.972 37.111 15.756 37.639 15.756C37.975 15.756 38.371 15.768 38.707 16.104C39.079 16.452 39.067 16.944 39.067 17.496V21H40.183V17.436C40.183 16.8 40.171 16.02 39.715 15.528ZM43.5876 21.06C43.8036 21.06 44.0556 21.036 44.2476 21L44.2236 20.028C44.0196 20.064 43.8036 20.088 43.6716 20.088C43.2276 20.088 43.0476 20.016 43.0476 19.62V15.9H44.2716V15H43.0476V13.332H41.9796V15H41.1156V15.9H41.9796V19.656C41.9796 20.628 42.4716 21.06 43.5876 21.06ZM47.8812 21.144C49.6812 21.144 50.8692 19.884 50.8692 18C50.8692 16.188 49.7172 14.856 47.8812 14.856C46.0212 14.856 44.8812 16.176 44.8812 18C44.8812 19.956 46.0092 21.144 47.8812 21.144ZM47.8812 20.292C47.2812 20.292 46.8612 20.136 46.5732 19.836C46.1892 19.44 46.0452 18.804 46.0452 18C46.0452 17.196 46.1892 16.56 46.5732 16.164C46.8612 15.864 47.2932 15.708 47.8812 15.708C48.4932 15.708 48.9132 15.888 49.2012 16.2C49.5612 16.596 49.7052 17.22 49.7052 18C49.7052 18.78 49.5612 19.392 49.2132 19.788C48.9252 20.112 48.4932 20.292 47.8812 20.292ZM60.0003 16.704C60.6363 16.356 61.0563 15.72 61.0563 14.904C61.0563 12.768 59.3643 12.6 57.9123 12.6H54.9843V21H57.9963C59.5803 21 61.3803 20.868 61.3803 18.684C61.3803 17.64 60.9483 17.052 60.0003 16.704ZM56.0643 13.536H57.8283C58.8483 13.536 60.0003 13.548 60.0003 14.904C60.0003 16.236 58.8483 16.248 57.8163 16.248H56.0643V13.536ZM57.9963 20.076H56.0643V17.184H58.0563C58.9683 17.184 60.3243 17.184 60.3243 18.684C60.3243 20.076 59.1843 20.076 57.9963 20.076ZM65.6304 14.868C64.6464 14.94 63.9384 15.48 63.7704 16.056V15H62.6904V21H63.7704V18.156C63.7704 16.224 64.5984 15.864 65.7384 15.864C65.8464 15.864 65.9424 15.864 66.0144 15.876L66.0384 14.856C65.9544 14.856 65.7264 14.856 65.6304 14.868ZM71.5585 16.044C71.0665 15.264 70.1665 14.856 69.2185 14.856C68.3545 14.856 67.6225 15.156 67.0945 15.756C66.5905 16.32 66.3385 17.1 66.3385 17.988C66.3385 18.924 66.5665 19.704 67.0705 20.268C67.5865 20.868 68.3065 21.144 69.2305 21.144C70.7545 21.144 71.7145 20.424 71.9785 19.02L70.9345 18.936C70.7905 19.848 70.2385 20.28 69.2185 20.28C68.0905 20.28 67.5385 19.644 67.5145 18.324H72.0625C72.1105 17.472 71.9185 16.62 71.5585 16.044ZM69.2305 15.732C69.8785 15.732 70.3225 15.924 70.6345 16.38C70.8265 16.668 70.9465 17.124 70.9585 17.448H67.5265C67.5265 17.148 67.5985 16.74 67.8145 16.38C68.0545 15.984 68.5585 15.732 69.2305 15.732ZM74.5216 21H75.6976L76.4776 17.904C76.5736 17.508 76.6936 16.896 76.8016 16.332C76.9216 16.932 77.0776 17.676 77.1376 17.904L77.9416 21H79.1056L81.1096 15H79.9456L78.9856 18.204C78.8416 18.684 78.6856 19.272 78.5056 19.968C78.3736 19.356 78.2056 18.6 78.1096 18.204L77.3176 15H76.3096L75.5056 18.204C75.4336 18.492 75.2296 19.38 75.0976 19.968C74.9056 19.236 74.6536 18.324 74.6176 18.204L73.6816 15H72.5176L74.5216 21ZM86.7929 16.044C86.3009 15.264 85.4009 14.856 84.4529 14.856C83.5889 14.856 82.8569 15.156 82.3289 15.756C81.8249 16.32 81.5729 17.1 81.5729 17.988C81.5729 18.924 81.8009 19.704 82.3049 20.268C82.8209 20.868 83.5409 21.144 84.4649 21.144C85.9889 21.144 86.9489 20.424 87.2129 19.02L86.1689 18.936C86.0249 19.848 85.4729 20.28 84.4529 20.28C83.3249 20.28 82.7729 19.644 82.7489 18.324H87.2969C87.3449 17.472 87.1529 16.62 86.7929 16.044ZM84.4649 15.732C85.1129 15.732 85.5569 15.924 85.8689 16.38C86.0609 16.668 86.1809 17.124 86.1929 17.448H82.7609C82.7609 17.148 82.8329 16.74 83.0489 16.38C83.2889 15.984 83.7929 15.732 84.4649 15.732ZM91.4586 14.868C90.4746 14.94 89.7666 15.48 89.5986 16.056V15H88.5186V21H89.5986V18.156C89.5986 16.224 90.4266 15.864 91.5666 15.864C91.6746 15.864 91.7706 15.864 91.8426 15.876L91.8666 14.856C91.7826 14.856 91.5546 14.856 91.4586 14.868ZM94.8153 21.144C96.0273 21.144 97.2873 20.724 97.2873 19.26C97.2873 17.856 96.0513 17.652 94.8513 17.4C94.1313 17.244 93.4113 17.088 93.4113 16.536C93.4113 15.984 94.0233 15.708 94.6113 15.708C95.5593 15.708 96.0993 16.152 96.1233 16.98L97.1313 16.824C96.9993 15.36 95.8953 14.856 94.6233 14.856C93.5553 14.856 92.4033 15.36 92.4033 16.608C92.4033 17.796 93.3633 18.084 94.3353 18.336C95.1633 18.552 96.2673 18.636 96.2673 19.32C96.2673 19.956 95.7753 20.292 94.7913 20.292C93.8553 20.292 93.2433 19.776 93.2553 18.936L92.2713 19.032C92.2593 20.52 93.4713 21.144 94.8153 21.144ZM2.508 24.78C2.328 25.8 1.572 26.292 0.216 26.292V27.216C0.312 27.228 0.432 27.24 0.54 27.24C1.284 27.24 1.956 27.084 2.28 26.688V33H3.348V24.78H2.508ZM6.85566 24.78C6.67566 25.8 5.91966 26.292 4.56366 26.292V27.216C4.65966 27.228 4.77966 27.24 4.88766 27.24C5.63166 27.24 6.30366 27.084 6.62766 26.688V33H7.69566V24.78H6.85566ZM9.39131 29.34H12.7513V28.38H9.39131V29.34ZM15.9611 24.78C15.7811 25.8 15.0251 26.292 13.6691 26.292V27.216C13.7651 27.228 13.8851 27.24 13.9931 27.24C14.7371 27.24 15.4091 27.084 15.7331 26.688V33H16.8011V24.78H15.9611ZM18.5328 34.572C19.2888 34.428 19.7328 33.876 19.7328 33.024V31.704H18.5208V33H19.0848C19.0728 33.66 18.7968 33.876 18.5328 33.972V34.572ZM26.669 33.144C28.289 33.144 30.053 32.592 30.053 30.552C30.053 28.764 28.625 28.464 26.957 28.2C25.817 28.02 24.545 27.72 24.545 26.772C24.545 25.788 25.565 25.356 26.381 25.356C27.761 25.356 28.601 26.076 28.625 27.336L29.753 27.132C29.573 25.14 28.145 24.456 26.405 24.456C25.037 24.456 23.429 25.104 23.429 26.82C23.429 28.428 24.869 28.884 26.177 29.196C27.437 29.496 28.925 29.472 28.925 30.636C28.925 31.86 27.869 32.232 26.633 32.232C25.337 32.232 24.353 31.488 24.353 30.144L23.201 30.264C23.201 32.22 24.821 33.144 26.669 33.144ZM36.697 32.112C36.541 32.148 36.445 32.16 36.349 32.16C36.001 32.16 36.001 32.016 36.001 31.704V28.836C36.001 27.528 35.233 26.856 33.721 26.856C32.953 26.856 32.317 27.012 31.885 27.3C31.417 27.612 31.165 28.14 31.141 28.86L32.197 29.004C32.197 28.092 32.617 27.708 33.661 27.708C34.189 27.708 34.585 27.864 34.753 28.104C34.933 28.356 34.957 28.656 34.957 29.196L32.977 29.58C32.029 29.76 30.937 30.12 30.937 31.416C30.937 32.592 31.945 33.144 32.953 33.144C33.973 33.144 34.633 32.796 34.969 32.112C35.029 32.736 35.389 33.048 36.049 33.048C36.289 33.048 36.493 33.036 36.721 33L36.697 32.112ZM34.957 30.732C34.957 31.596 34.429 32.28 33.121 32.28C32.533 32.28 32.041 31.968 32.041 31.404C32.041 30.72 32.509 30.54 33.145 30.396L34.957 30V30.732ZM42.4455 27.528C42.0135 27.072 41.4495 26.856 40.6575 26.856C39.6975 26.856 39.1095 27.24 38.8095 27.912V27H37.7295V33H38.8095V29.688C38.8095 27.972 39.8415 27.756 40.3695 27.756C40.7055 27.756 41.1015 27.768 41.4375 28.104C41.8095 28.452 41.7975 28.944 41.7975 29.496V33H42.9135V29.436C42.9135 28.8 42.9015 28.02 42.4455 27.528ZM48.7286 27V27.84C48.3086 27.204 47.6966 26.856 46.7966 26.856C45.1886 26.856 44.0846 28.068 44.0846 29.844C44.0846 31.716 45.1766 32.952 46.8326 32.952C47.6606 32.952 48.2846 32.616 48.7286 31.92V32.94C48.7286 34.032 48.0206 34.62 47.0486 34.62C46.0886 34.62 45.4526 34.356 45.4046 33.36L44.3726 33.432C44.4326 34.944 45.7406 35.46 46.9286 35.46C48.6926 35.46 49.8086 34.476 49.8086 32.868V27H48.7286ZM47.0006 32.088C45.6206 32.088 45.2606 31.248 45.2606 29.844C45.2606 28.548 45.6806 27.72 47.0246 27.72C48.1526 27.72 48.7766 28.428 48.7766 29.844C48.7766 30.948 48.3806 32.088 47.0006 32.088ZM52.6896 33H53.8656L54.6456 29.904C54.7416 29.508 54.8616 28.896 54.9696 28.332C55.0896 28.932 55.2456 29.676 55.3056 29.904L56.1096 33H57.2736L59.2776 27H58.1136L57.1536 30.204C57.0096 30.684 56.8536 31.272 56.6736 31.968C56.5416 31.356 56.3736 30.6 56.2776 30.204L55.4856 27H54.4776L53.6736 30.204C53.6016 30.492 53.3976 31.38 53.2656 31.968C53.0736 31.236 52.8216 30.324 52.7856 30.204L51.8496 27H50.6856L52.6896 33ZM62.7289 33.144C64.5289 33.144 65.7169 31.884 65.7169 30C65.7169 28.188 64.5649 26.856 62.7289 26.856C60.8689 26.856 59.7289 28.176 59.7289 30C59.7289 31.956 60.8569 33.144 62.7289 33.144ZM62.7289 32.292C62.1289 32.292 61.7089 32.136 61.4209 31.836C61.0369 31.44 60.8929 30.804 60.8929 30C60.8929 29.196 61.0369 28.56 61.4209 28.164C61.7089 27.864 62.1409 27.708 62.7289 27.708C63.3409 27.708 63.7609 27.888 64.0489 28.2C64.4089 28.596 64.5529 29.22 64.5529 30C64.5529 30.78 64.4089 31.392 64.0609 31.788C63.7729 32.112 63.3409 32.292 62.7289 32.292ZM71.6603 27.528C71.2283 27.072 70.6643 26.856 69.8723 26.856C68.9123 26.856 68.3243 27.24 68.0243 27.912V27H66.9443V33H68.0243V29.688C68.0243 27.972 69.0563 27.756 69.5843 27.756C69.9203 27.756 70.3163 27.768 70.6523 28.104C71.0243 28.452 71.0123 28.944 71.0123 29.496V33H72.1283V29.436C72.1283 28.8 72.1163 28.02 71.6603 27.528ZM79.1631 27.636C78.3471 27.636 77.5551 27.984 77.0991 28.788C77.0991 27.192 77.4351 25.536 79.0911 25.536C80.0511 25.536 80.4231 26.16 80.4951 26.94L81.4911 26.772C81.3351 25.644 80.6511 24.636 79.1271 24.636C76.7991 24.636 76.1031 26.472 76.1031 29.136C76.1031 30.876 76.5111 33.144 78.9351 33.144C80.9991 33.144 81.6951 31.584 81.6951 30.348C81.6951 28.8 80.7351 27.636 79.1631 27.636ZM78.9231 32.244C77.7591 32.244 77.2431 31.416 77.2431 30.396C77.2431 29.268 77.9031 28.56 78.9831 28.56C80.1111 28.56 80.6751 29.172 80.6751 30.336C80.6751 31.656 80.0991 32.244 78.9231 32.244ZM89.4746 28.548V29.568H91.9706C91.9466 31.308 91.0946 32.208 89.4986 32.208C88.4426 32.208 87.6746 31.944 87.2186 31.296C86.8106 30.708 86.6066 29.892 86.6066 28.8C86.6066 27.72 86.8106 26.916 87.2186 26.34C87.6746 25.704 88.4426 25.392 89.4026 25.392C90.7466 25.392 91.5146 26.316 91.7906 27.312L92.9666 27.084C92.4986 25.332 91.0946 24.456 89.3786 24.456C86.7986 24.456 85.3946 26.256 85.3946 28.8C85.3946 31.596 86.8346 33.144 89.3786 33.144C90.5546 33.144 91.4906 32.7 92.0666 31.848L92.1626 33H93.0506V28.548H89.4746ZM94.4834 25.872H95.5634V24.6H94.4834V25.872ZM94.4834 33H95.5634V27H94.4834V33ZM97.1436 33H98.2236V24.6H97.1436V33ZM99.7437 34.572C100.5 34.428 100.944 33.876 100.944 33.024V31.704H99.7317V33H100.296C100.284 33.66 100.008 33.876 99.7437 33.972V34.572ZM3.876 45.144C5.496 45.144 7.26 44.592 7.26 42.552C7.26 40.764 5.832 40.464 4.164 40.2C3.024 40.02 1.752 39.72 1.752 38.772C1.752 37.788 2.772 37.356 3.588 37.356C4.968 37.356 5.808 38.076 5.832 39.336L6.96 39.132C6.78 37.14 5.352 36.456 3.612 36.456C2.244 36.456 0.636 37.104 0.636 38.82C0.636 40.428 2.076 40.884 3.384 41.196C4.644 41.496 6.132 41.472 6.132 42.636C6.132 43.86 5.076 44.232 3.84 44.232C2.544 44.232 1.56 43.488 1.56 42.144L0.408 42.264C0.408 44.22 2.028 45.144 3.876 45.144ZM12.5001 39V42.372C12.5001 44.112 11.4921 44.244 10.9521 44.244C10.6041 44.244 10.2081 44.232 9.86006 43.896C9.50006 43.548 9.51206 43.08 9.51206 42.528V39H8.39606V42.588C8.39606 43.224 8.40806 43.98 8.87606 44.472C9.30806 44.928 9.87206 45.144 10.6521 45.144C11.5041 45.144 12.1761 44.784 12.5001 44.1V45H13.5801V39H12.5001ZM19.8752 39.528C19.4432 39.072 18.8792 38.856 18.0872 38.856C17.1272 38.856 16.5392 39.24 16.2392 39.912V39H15.1592V45H16.2392V41.688C16.2392 39.972 17.2712 39.756 17.7992 39.756C18.1352 39.756 18.5312 39.768 18.8672 40.104C19.2392 40.452 19.2272 40.944 19.2272 41.496V45H20.3432V41.436C20.3432 40.8 20.3312 40.02 19.8752 39.528ZM26.1583 39V39.84C25.7383 39.204 25.1263 38.856 24.2263 38.856C22.6183 38.856 21.5143 40.068 21.5143 41.844C21.5143 43.716 22.6063 44.952 24.2623 44.952C25.0903 44.952 25.7143 44.616 26.1583 43.92V44.94C26.1583 46.032 25.4503 46.62 24.4783 46.62C23.5183 46.62 22.8823 46.356 22.8343 45.36L21.8023 45.432C21.8623 46.944 23.1703 47.46 24.3583 47.46C26.1223 47.46 27.2383 46.476 27.2383 44.868V39H26.1583ZM24.4303 44.088C23.0503 44.088 22.6903 43.248 22.6903 41.844C22.6903 40.548 23.1103 39.72 24.4543 39.72C25.5823 39.72 26.2063 40.428 26.2063 41.844C26.2063 42.948 25.8103 44.088 24.4303 44.088ZM33.1313 36.6V39.78C32.6753 39.144 32.0393 38.856 31.1992 38.856C29.5793 38.856 28.4753 40.104 28.4753 42C28.4753 43.956 29.6393 45.144 31.2353 45.144C32.0393 45.144 32.6873 44.808 33.1313 44.124V45H34.2113V36.6H33.1313ZM31.4273 44.292C30.0233 44.292 29.6633 43.404 29.6633 42C29.6633 40.56 30.1073 39.72 31.4513 39.72C32.9153 39.72 33.1673 40.896 33.1673 42.012C33.1673 43.524 32.5793 44.292 31.4273 44.292ZM38.4359 45.144C40.2359 45.144 41.4239 43.884 41.4239 42C41.4239 40.188 40.2719 38.856 38.4359 38.856C36.5759 38.856 35.4359 40.176 35.4359 42C35.4359 43.956 36.5639 45.144 38.4359 45.144ZM38.4359 44.292C37.8359 44.292 37.4159 44.136 37.1279 43.836C36.7439 43.44 36.5999 42.804 36.5999 42C36.5999 41.196 36.7439 40.56 37.1279 40.164C37.4159 39.864 37.8479 39.708 38.4359 39.708C39.0479 39.708 39.4679 39.888 39.7559 40.2C40.1159 40.596 40.2599 41.22 40.2599 42C40.2599 42.78 40.1159 43.392 39.7679 43.788C39.4799 44.112 39.0479 44.292 38.4359 44.292ZM47.3674 39.528C46.9354 39.072 46.3714 38.856 45.5794 38.856C44.6194 38.856 44.0314 39.24 43.7314 39.912V39H42.6514V45H43.7314V41.688C43.7314 39.972 44.7634 39.756 45.2914 39.756C45.6274 39.756 46.0234 39.768 46.3594 40.104C46.7314 40.452 46.7194 40.944 46.7194 41.496V45H47.8354V41.436C47.8354 40.8 47.8234 40.02 47.3674 39.528ZM53.6505 39V39.84C53.2305 39.204 52.6185 38.856 51.7185 38.856C50.1105 38.856 49.0065 40.068 49.0065 41.844C49.0065 43.716 50.0985 44.952 51.7545 44.952C52.5825 44.952 53.2065 44.616 53.6505 43.92V44.94C53.6505 46.032 52.9425 46.62 51.9705 46.62C51.0105 46.62 50.3745 46.356 50.3265 45.36L49.2945 45.432C49.3545 46.944 50.6625 47.46 51.8505 47.46C53.6145 47.46 54.7305 46.476 54.7305 44.868V39H53.6505ZM51.9225 44.088C50.5425 44.088 50.1825 43.248 50.1825 41.844C50.1825 40.548 50.6025 39.72 51.9465 39.72C53.0745 39.72 53.6985 40.428 53.6985 41.844C53.6985 42.948 53.3025 44.088 51.9225 44.088ZM62.791 40.548V41.568H65.287C65.263 43.308 64.411 44.208 62.815 44.208C61.759 44.208 60.991 43.944 60.535 43.296C60.127 42.708 59.923 41.892 59.923 40.8C59.923 39.72 60.127 38.916 60.535 38.34C60.991 37.704 61.759 37.392 62.719 37.392C64.063 37.392 64.831 38.316 65.107 39.312L66.283 39.084C65.815 37.332 64.411 36.456 62.695 36.456C60.115 36.456 58.711 38.256 58.711 40.8C58.711 43.596 60.151 45.144 62.695 45.144C63.871 45.144 64.807 44.7 65.383 43.848L65.479 45H66.367V40.548H62.791ZM71.8438 39V42.372C71.8438 44.112 70.8358 44.244 70.2958 44.244C69.9478 44.244 69.5518 44.232 69.2038 43.896C68.8438 43.548 68.8558 43.08 68.8558 42.528V39H67.7398V42.588C67.7398 43.224 67.7518 43.98 68.2198 44.472C68.6518 44.928 69.2158 45.144 69.9958 45.144C70.8478 45.144 71.5198 44.784 71.8438 44.1V45H72.9238V39H71.8438ZM74.4429 46.572C75.1989 46.428 75.6429 45.876 75.6429 45.024V43.704H74.4309V45H74.9949C74.9829 45.66 74.7069 45.876 74.4429 45.972V46.572ZM82.5791 45.144C84.1991 45.144 85.9631 44.592 85.9631 42.552C85.9631 40.764 84.5351 40.464 82.8671 40.2C81.7271 40.02 80.4551 39.72 80.4551 38.772C80.4551 37.788 81.4751 37.356 82.2911 37.356C83.6711 37.356 84.5111 38.076 84.5351 39.336L85.6631 39.132C85.4831 37.14 84.0551 36.456 82.3151 36.456C80.9471 36.456 79.3391 37.104 79.3391 38.82C79.3391 40.428 80.7791 40.884 82.0871 41.196C83.3471 41.496 84.8351 41.472 84.8351 42.636C84.8351 43.86 83.7791 44.232 82.5431 44.232C81.2471 44.232 80.2631 43.488 80.2631 42.144L79.1111 42.264C79.1111 44.22 80.7311 45.144 82.5791 45.144ZM92.0312 40.044C91.5392 39.264 90.6392 38.856 89.6912 38.856C88.8272 38.856 88.0952 39.156 87.5672 39.756C87.0632 40.32 86.8112 41.1 86.8112 41.988C86.8112 42.924 87.0392 43.704 87.5432 44.268C88.0592 44.868 88.7792 45.144 89.7032 45.144C91.2272 45.144 92.1872 44.424 92.4512 43.02L91.4072 42.936C91.2632 43.848 90.7112 44.28 89.6912 44.28C88.5632 44.28 88.0112 43.644 87.9872 42.324H92.5352C92.5832 41.472 92.3912 40.62 92.0312 40.044ZM89.7032 39.732C90.3512 39.732 90.7952 39.924 91.1072 40.38C91.2992 40.668 91.4192 41.124 91.4312 41.448H87.9992C87.9992 41.148 88.0712 40.74 88.2872 40.38C88.5272 39.984 89.0312 39.732 89.7032 39.732ZM96.3968 45.144C98.1968 45.144 99.3848 43.884 99.3848 42C99.3848 40.188 98.2328 38.856 96.3968 38.856C94.5368 38.856 93.3968 40.176 93.3968 42C93.3968 43.956 94.5248 45.144 96.3968 45.144ZM96.3968 44.292C95.7968 44.292 95.3768 44.136 95.0888 43.836C94.7048 43.44 94.5608 42.804 94.5608 42C94.5608 41.196 94.7048 40.56 95.0888 40.164C95.3768 39.864 95.8088 39.708 96.3968 39.708C97.0088 39.708 97.4288 39.888 97.7168 40.2C98.0768 40.596 98.2208 41.22 98.2208 42C98.2208 42.78 98.0768 43.392 97.7288 43.788C97.4408 44.112 97.0088 44.292 96.3968 44.292ZM104.656 39V42.372C104.656 44.112 103.648 44.244 103.108 44.244C102.76 44.244 102.364 44.232 102.016 43.896C101.656 43.548 101.668 43.08 101.668 42.528V39H100.552V42.588C100.552 43.224 100.564 43.98 101.032 44.472C101.464 44.928 102.028 45.144 102.808 45.144C103.66 45.144 104.332 44.784 104.656 44.1V45H105.736V39H104.656ZM107.315 45H108.395V36.6H107.315V45ZM118.131 45H119.487L115.935 40.08L119.403 36.6H117.951L113.955 40.644V36.6H112.863V45H113.955V42.084L115.155 40.872L118.131 45ZM126.339 42.9C126.339 42.036 126.039 41.424 125.247 41.124C125.979 40.872 126.543 40.104 126.543 39.072C126.543 36.792 124.719 36.6 123.231 36.6H120.387V45H121.467V41.52H123.339C124.815 41.52 125.259 41.904 125.259 43.02C125.259 44.184 125.343 44.58 125.619 45H126.807L126.819 44.964C126.411 44.448 126.339 43.872 126.339 42.9ZM123.219 40.596H121.467V37.536H123.231C124.251 37.536 125.475 37.536 125.475 39.12C125.475 40.512 124.251 40.596 123.219 40.596ZM4.488 69.144C6.252 69.144 7.524 68.292 8.196 66.756L6.96 66.432C6.624 67.392 5.856 68.208 4.488 68.208C3.528 68.208 2.76 67.884 2.328 67.272C1.92 66.684 1.728 65.892 1.728 64.8C1.728 63.72 1.92 62.916 2.328 62.34C2.784 61.704 3.552 61.392 4.512 61.392C5.868 61.392 6.684 62.304 6.936 63.312L8.124 63.084C7.656 61.332 6.204 60.456 4.488 60.456C1.908 60.456 0.504 62.256 0.504 64.8C0.504 67.596 1.944 69.144 4.488 69.144ZM11.8695 69.144C13.6695 69.144 14.8575 67.884 14.8575 66C14.8575 64.188 13.7055 62.856 11.8695 62.856C10.0095 62.856 8.8695 64.176 8.8695 66C8.8695 67.956 9.9975 69.144 11.8695 69.144ZM11.8695 68.292C11.2695 68.292 10.8495 68.136 10.5615 67.836C10.1775 67.44 10.0335 66.804 10.0335 66C10.0335 65.196 10.1775 64.56 10.5615 64.164C10.8495 63.864 11.2815 63.708 11.8695 63.708C12.4815 63.708 12.9015 63.888 13.1895 64.2C13.5495 64.596 13.6935 65.22 13.6935 66C13.6935 66.78 13.5495 67.392 13.2015 67.788C12.9135 68.112 12.4815 68.292 11.8695 68.292ZM20.801 63.528C20.369 63.072 19.805 62.856 19.013 62.856C18.053 62.856 17.465 63.24 17.165 63.912V63H16.085V69H17.165V65.688C17.165 63.972 18.197 63.756 18.725 63.756C19.061 63.756 19.457 63.768 19.793 64.104C20.165 64.452 20.153 64.944 20.153 65.496V69H21.269V65.436C21.269 64.8 21.257 64.02 20.801 63.528ZM25.4041 69.144C26.7961 69.144 27.8281 68.376 28.0561 67.164L27.0361 67.056C26.8081 67.92 26.3281 68.28 25.4041 68.28C23.9521 68.28 23.6161 67.356 23.6161 66C23.6161 64.68 23.9401 63.72 25.4041 63.72C26.4841 63.72 26.8441 64.404 27.0241 65.1L28.0321 64.908C27.7921 63.768 26.9281 62.856 25.4041 62.856C23.5681 62.856 22.4281 64.152 22.4281 66C22.4281 67.968 23.5681 69.144 25.4041 69.144ZM34.0351 64.044C33.5431 63.264 32.6431 62.856 31.6951 62.856C30.8311 62.856 30.0991 63.156 29.5711 63.756C29.0671 64.32 28.8151 65.1 28.8151 65.988C28.8151 66.924 29.0431 67.704 29.5471 68.268C30.0631 68.868 30.7831 69.144 31.7071 69.144C33.2311 69.144 34.1911 68.424 34.4551 67.02L33.4111 66.936C33.2671 67.848 32.7151 68.28 31.6951 68.28C30.5671 68.28 30.0151 67.644 29.9911 66.324H34.5391C34.5871 65.472 34.3951 64.62 34.0351 64.044ZM31.7071 63.732C32.3551 63.732 32.7991 63.924 33.1111 64.38C33.3031 64.668 33.4231 65.124 33.4351 65.448H30.0031C30.0031 65.148 30.0751 64.74 30.2911 64.38C30.5311 63.984 31.0351 63.732 31.7071 63.732ZM38.7008 62.868C37.7168 62.94 37.0088 63.48 36.8408 64.056V63H35.7607V69H36.8408V66.156C36.8408 64.224 37.6688 63.864 38.8088 63.864C38.9168 63.864 39.0128 63.864 39.0848 63.876L39.1088 62.856C39.0248 62.856 38.7968 62.856 38.7008 62.868ZM41.9938 69.06C42.2098 69.06 42.4618 69.036 42.6538 69L42.6298 68.028C42.4258 68.064 42.2098 68.088 42.0778 68.088C41.6338 68.088 41.4538 68.016 41.4538 67.62V63.9H42.6778V63H41.4538V61.332H40.3858V63H39.5218V63.9H40.3858V67.656C40.3858 68.628 40.8778 69.06 41.9938 69.06ZM43.6335 64.692H44.8455V63.42H43.6335V64.692ZM43.6455 70.572C44.4015 70.428 44.8455 69.876 44.8455 69.024V67.704H43.6335V69H44.1975C44.1855 69.66 43.9095 69.876 43.6455 69.972V70.572ZM6.6 81H7.74L4.464 72.6H3.312L0.024 81H1.176L2.1 78.492H5.664L6.6 81ZM2.46 77.532L3.396 75C3.588 74.472 3.72 74.088 3.864 73.644H3.876C3.996 74.004 4.188 74.556 4.356 75L5.304 77.532H2.46ZM8.80491 81H9.87291V75.9H11.0969V75H9.87291V73.968C9.87291 73.572 10.0649 73.5 10.4729 73.5C10.6049 73.5 10.8569 73.524 11.0489 73.56L11.0729 72.6C10.9409 72.576 10.6649 72.54 10.4129 72.54C9.29691 72.54 8.80491 72.972 8.80491 73.944V75H7.94091V75.9H8.80491V81ZM13.9626 81.06C14.1786 81.06 14.4306 81.036 14.6226 81L14.5986 80.028C14.3946 80.064 14.1786 80.088 14.0466 80.088C13.6026 80.088 13.4226 80.016 13.4226 79.62V75.9H14.6466V75H13.4226V73.332H12.3546V75H11.4906V75.9H12.3546V79.656C12.3546 80.628 12.8466 81.06 13.9626 81.06ZM16.9943 81H18.1703L18.9503 77.904C19.0463 77.508 19.1663 76.896 19.2743 76.332C19.3943 76.932 19.5503 77.676 19.6103 77.904L20.4143 81H21.5783L23.5823 75H22.4183L21.4583 78.204C21.3143 78.684 21.1583 79.272 20.9783 79.968C20.8463 79.356 20.6783 78.6 20.5823 78.204L19.7903 75H18.7823L17.9783 78.204C17.9062 78.492 17.7023 79.38 17.5703 79.968C17.3783 79.236 17.1263 78.324 17.0903 78.204L16.1543 75H14.9903L16.9943 81ZM29.2656 76.044C28.7736 75.264 27.8736 74.856 26.9256 74.856C26.0616 74.856 25.3296 75.156 24.8016 75.756C24.2976 76.32 24.0456 77.1 24.0456 77.988C24.0456 78.924 24.2736 79.704 24.7776 80.268C25.2936 80.868 26.0136 81.144 26.9376 81.144C28.4616 81.144 29.4216 80.424 29.6856 79.02L28.6416 78.936C28.4976 79.848 27.9456 80.28 26.9256 80.28C25.7976 80.28 25.2456 79.644 25.2216 78.324H29.7696C29.8176 77.472 29.6256 76.62 29.2656 76.044ZM26.9376 75.732C27.5856 75.732 28.0296 75.924 28.3416 76.38C28.5336 76.668 28.6536 77.124 28.6656 77.448H25.2336C25.2336 77.148 25.3056 76.74 25.5216 76.38C25.7616 75.984 26.2656 75.732 26.9376 75.732ZM33.9312 74.868C32.9472 74.94 32.2392 75.48 32.0712 76.056V75H30.9912V81H32.0712V78.156C32.0712 76.224 32.8992 75.864 34.0392 75.864C34.1472 75.864 34.2432 75.864 34.3152 75.876L34.3392 74.856C34.2552 74.856 34.0272 74.856 33.9312 74.868ZM36.6935 81H37.8695L38.6495 77.904C38.7455 77.508 38.8655 76.896 38.9735 76.332C39.0935 76.932 39.2495 77.676 39.3095 77.904L40.1135 81H41.2775L43.2815 75H42.1175L41.1575 78.204C41.0135 78.684 40.8575 79.272 40.6775 79.968C40.5455 79.356 40.3775 78.6 40.2815 78.204L39.4895 75H38.4815L37.6775 78.204C37.6055 78.492 37.4015 79.38 37.2695 79.968C37.0775 79.236 36.8255 78.324 36.7895 78.204L35.8535 75H34.6895L36.6935 81ZM46.7328 81.144C48.5328 81.144 49.7208 79.884 49.7208 78C49.7208 76.188 48.5688 74.856 46.7328 74.856C44.8728 74.856 43.7328 76.176 43.7328 78C43.7328 79.956 44.8608 81.144 46.7328 81.144ZM46.7328 80.292C46.1328 80.292 45.7128 80.136 45.4248 79.836C45.0408 79.44 44.8968 78.804 44.8968 78C44.8968 77.196 45.0408 76.56 45.4248 76.164C45.7128 75.864 46.1448 75.708 46.7328 75.708C47.3448 75.708 47.7648 75.888 48.0528 76.2C48.4128 76.596 48.5568 77.22 48.5568 78C48.5568 78.78 48.4128 79.392 48.0648 79.788C47.7768 80.112 47.3448 80.292 46.7328 80.292ZM53.8883 74.868C52.9043 74.94 52.1963 75.48 52.0283 76.056V75H50.9482V81H52.0283V78.156C52.0283 76.224 52.8563 75.864 53.9963 75.864C54.1043 75.864 54.2003 75.864 54.2723 75.876L54.2963 74.856C54.2123 74.856 53.9843 74.856 53.8883 74.868ZM59.0787 81H60.3387L57.8547 77.196L60.2307 75H58.7667L56.2587 77.484V72.6H55.1787V81H56.2587V78.708L57.0987 77.916L59.0787 81ZM65.3764 81H66.4684V73.548H69.2644V72.6H62.5804V73.548H65.3764V81ZM74.3845 80.112C74.2285 80.148 74.1325 80.16 74.0365 80.16C73.6885 80.16 73.6885 80.016 73.6885 79.704V76.836C73.6885 75.528 72.9205 74.856 71.4085 74.856C70.6405 74.856 70.0045 75.012 69.5725 75.3C69.1045 75.612 68.8525 76.14 68.8285 76.86L69.8845 77.004C69.8845 76.092 70.3045 75.708 71.3485 75.708C71.8765 75.708 72.2725 75.864 72.4405 76.104C72.6205 76.356 72.6445 76.656 72.6445 77.196L70.6645 77.58C69.7165 77.76 68.6245 78.12 68.6245 79.416C68.6245 80.592 69.6325 81.144 70.6405 81.144C71.6605 81.144 72.3205 80.796 72.6565 80.112C72.7165 80.736 73.0765 81.048 73.7365 81.048C73.9765 81.048 74.1805 81.036 74.4085 81L74.3845 80.112ZM72.6445 78.732C72.6445 79.596 72.1165 80.28 70.8085 80.28C70.2205 80.28 69.7285 79.968 69.7285 79.404C69.7285 78.72 70.1965 78.54 70.8325 78.396L72.6445 78V78.732ZM80.133 75.528C79.701 75.072 79.137 74.856 78.345 74.856C77.385 74.856 76.797 75.24 76.497 75.912V75H75.417V81H76.497V77.688C76.497 75.972 77.529 75.756 78.057 75.756C78.393 75.756 78.789 75.768 79.125 76.104C79.497 76.452 79.485 76.944 79.485 77.496V81H80.601V77.436C80.601 76.8 80.589 76.02 80.133 75.528ZM86.4161 75V75.84C85.9961 75.204 85.3841 74.856 84.4841 74.856C82.8761 74.856 81.7721 76.068 81.7721 77.844C81.7721 79.716 82.8641 80.952 84.5201 80.952C85.3481 80.952 85.9721 80.616 86.4161 79.92V80.94C86.4161 82.032 85.7081 82.62 84.7361 82.62C83.7761 82.62 83.1401 82.356 83.0921 81.36L82.0601 81.432C82.1201 82.944 83.4281 83.46 84.6161 83.46C86.3801 83.46 87.4961 82.476 87.4961 80.868V75H86.4161ZM84.6881 80.088C83.3081 80.088 82.9481 79.248 82.9481 77.844C82.9481 76.548 83.3681 75.72 84.7121 75.72C85.8401 75.72 86.4641 76.428 86.4641 77.844C86.4641 78.948 86.0681 80.088 84.6881 80.088ZM91.7211 81.144C93.5211 81.144 94.7091 79.884 94.7091 78C94.7091 76.188 93.5571 74.856 91.7211 74.856C89.8611 74.856 88.7211 76.176 88.7211 78C88.7211 79.956 89.8491 81.144 91.7211 81.144ZM91.7211 80.292C91.1211 80.292 90.7011 80.136 90.4131 79.836C90.0291 79.44 89.8851 78.804 89.8851 78C89.8851 77.196 90.0291 76.56 90.4131 76.164C90.7011 75.864 91.1331 75.708 91.7211 75.708C92.3331 75.708 92.7531 75.888 93.0411 76.2C93.4011 76.596 93.5451 77.22 93.5451 78C93.5451 78.78 93.4011 79.392 93.0531 79.788C92.7651 80.112 92.3331 80.292 91.7211 80.292ZM0.996 93H2.088V89.244H6.3V93H7.392V84.6H6.3V88.272H2.088V84.6H0.996V93ZM11.7406 93.144C13.5406 93.144 14.7286 91.884 14.7286 90C14.7286 88.188 13.5766 86.856 11.7406 86.856C9.88059 86.856 8.74059 88.176 8.74059 90C8.74059 91.956 9.86859 93.144 11.7406 93.144ZM11.7406 92.292C11.1406 92.292 10.7206 92.136 10.4326 91.836C10.0486 91.44 9.90459 90.804 9.90459 90C9.90459 89.196 10.0486 88.56 10.4326 88.164C10.7206 87.864 11.1526 87.708 11.7406 87.708C12.3526 87.708 12.7726 87.888 13.0606 88.2C13.4206 88.596 13.5646 89.22 13.5646 90C13.5646 90.78 13.4206 91.392 13.0726 91.788C12.7846 92.112 12.3526 92.292 11.7406 92.292ZM18.1161 93.144C19.3281 93.144 20.5881 92.724 20.5881 91.26C20.5881 89.856 19.3521 89.652 18.1521 89.4C17.4321 89.244 16.7121 89.088 16.7121 88.536C16.7121 87.984 17.3241 87.708 17.9121 87.708C18.8601 87.708 19.4001 88.152 19.4241 88.98L20.4321 88.824C20.3001 87.36 19.1961 86.856 17.9241 86.856C16.8561 86.856 15.7041 87.36 15.7041 88.608C15.7041 89.796 16.6641 90.084 17.6361 90.336C18.4641 90.552 19.5681 90.636 19.5681 91.32C19.5681 91.956 19.0761 92.292 18.0921 92.292C17.1561 92.292 16.5441 91.776 16.5561 90.936L15.5721 91.032C15.5601 92.52 16.7721 93.144 18.1161 93.144ZM23.6891 93.06C23.9051 93.06 24.1571 93.036 24.3491 93L24.3251 92.028C24.1211 92.064 23.9051 92.088 23.7731 92.088C23.3291 92.088 23.1491 92.016 23.1491 91.62V87.9H24.3731V87H23.1491V85.332H22.0811V87H21.2171V87.9H22.0811V91.656C22.0811 92.628 22.5731 93.06 23.6891 93.06ZM25.3288 88.692H26.5408V87.42H25.3288V88.692ZM25.3408 94.572C26.0968 94.428 26.5408 93.876 26.5408 93.024V91.704H25.3288V93H25.8928C25.8808 93.66 25.6048 93.876 25.3408 93.972V94.572ZM31.094 93H32.162V87.9H33.386V87H32.162V85.968C32.162 85.572 32.354 85.5 32.762 85.5C32.894 85.5 33.146 85.524 33.338 85.56L33.362 84.6C33.23 84.576 32.954 84.54 32.702 84.54C31.586 84.54 31.094 84.972 31.094 85.944V87H30.23V87.9H31.094V93ZM36.2516 93.06C36.4676 93.06 36.7196 93.036 36.9116 93L36.8876 92.028C36.6836 92.064 36.4676 92.088 36.3356 92.088C35.8916 92.088 35.7116 92.016 35.7116 91.62V87.9H36.9356V87H35.7116V85.332H34.6436V87H33.7796V87.9H34.6436V91.656C34.6436 92.628 35.1356 93.06 36.2516 93.06ZM39.9313 93.06C40.1473 93.06 40.3993 93.036 40.5913 93L40.5673 92.028C40.3633 92.064 40.1473 92.088 40.0153 92.088C39.5713 92.088 39.3913 92.016 39.3913 91.62V87.9H40.6153V87H39.3913V85.332H38.3233V87H37.4593V87.9H38.3233V91.656C38.3233 92.628 38.8153 93.06 39.9313 93.06ZM44.225 93.144C46.025 93.144 47.213 91.884 47.213 90C47.213 88.188 46.061 86.856 44.225 86.856C42.365 86.856 41.225 88.176 41.225 90C41.225 91.956 42.353 93.144 44.225 93.144ZM44.225 92.292C43.625 92.292 43.205 92.136 42.917 91.836C42.533 91.44 42.389 90.804 42.389 90C42.389 89.196 42.533 88.56 42.917 88.164C43.205 87.864 43.637 87.708 44.225 87.708C44.837 87.708 45.257 87.888 45.545 88.2C45.905 88.596 46.049 89.22 46.049 90C46.049 90.78 45.905 91.392 45.557 91.788C45.269 92.112 44.837 92.292 44.225 92.292ZM54.82 93.144C56.584 93.144 57.856 92.292 58.528 90.756L57.292 90.432C56.956 91.392 56.188 92.208 54.82 92.208C53.86 92.208 53.092 91.884 52.66 91.272C52.252 90.684 52.06 89.892 52.06 88.8C52.06 87.72 52.252 86.916 52.66 86.34C53.116 85.704 53.884 85.392 54.844 85.392C56.2 85.392 57.016 86.304 57.268 87.312L58.456 87.084C57.988 85.332 56.536 84.456 54.82 84.456C52.24 84.456 50.836 86.256 50.836 88.8C50.836 91.596 52.276 93.144 54.82 93.144ZM62.5015 86.868C61.5175 86.94 60.8095 87.48 60.6415 88.056V87H59.5615V93H60.6415V90.156C60.6415 88.224 61.4695 87.864 62.6095 87.864C62.7175 87.864 62.8135 87.864 62.8855 87.876L62.9095 86.856C62.8255 86.856 62.5975 86.856 62.5015 86.868ZM68.4296 88.044C67.9376 87.264 67.0376 86.856 66.0896 86.856C65.2256 86.856 64.4936 87.156 63.9656 87.756C63.4616 88.32 63.2096 89.1 63.2096 89.988C63.2096 90.924 63.4376 91.704 63.9416 92.268C64.4576 92.868 65.1776 93.144 66.1016 93.144C67.6256 93.144 68.5856 92.424 68.8496 91.02L67.8056 90.936C67.6616 91.848 67.1096 92.28 66.0896 92.28C64.9616 92.28 64.4096 91.644 64.3856 90.324H68.9336C68.9816 89.472 68.7896 88.62 68.4296 88.044ZM66.1016 87.732C66.7496 87.732 67.1936 87.924 67.5056 88.38C67.6976 88.668 67.8176 89.124 67.8296 89.448H64.3976C64.3976 89.148 64.4696 88.74 64.6856 88.38C64.9256 87.984 65.4296 87.732 66.1016 87.732ZM75.6033 92.112C75.4473 92.148 75.3513 92.16 75.2553 92.16C74.9073 92.16 74.9073 92.016 74.9073 91.704V88.836C74.9073 87.528 74.1393 86.856 72.6273 86.856C71.8593 86.856 71.2233 87.012 70.7913 87.3C70.3233 87.612 70.0713 88.14 70.0473 88.86L71.1033 89.004C71.1033 88.092 71.5233 87.708 72.5673 87.708C73.0953 87.708 73.4913 87.864 73.6593 88.104C73.8393 88.356 73.8633 88.656 73.8633 89.196L71.8833 89.58C70.9353 89.76 69.8433 90.12 69.8433 91.416C69.8433 92.592 70.8513 93.144 71.8593 93.144C72.8793 93.144 73.5393 92.796 73.8753 92.112C73.9353 92.736 74.2953 93.048 74.9553 93.048C75.1953 93.048 75.3993 93.036 75.6273 93L75.6033 92.112ZM73.8633 90.732C73.8633 91.596 73.3353 92.28 72.0273 92.28C71.4393 92.28 70.9473 91.968 70.9473 91.404C70.9473 90.72 71.4153 90.54 72.0513 90.396L73.8633 90V90.732ZM78.5094 93.06C78.7254 93.06 78.9774 93.036 79.1694 93L79.1454 92.028C78.9414 92.064 78.7254 92.088 78.5934 92.088C78.1494 92.088 77.9694 92.016 77.9694 91.62V87.9H79.1934V87H77.9694V85.332H76.9014V87H76.0374V87.9H76.9014V91.656C76.9014 92.628 77.3934 93.06 78.5094 93.06ZM80.2451 85.872H81.3251V84.6H80.2451V85.872ZM80.2451 93H81.3251V87H80.2451V93ZM84.4413 93H85.5933L87.8373 87H86.7093L85.6293 90.108C85.4373 90.66 85.2213 91.344 85.0173 92.004C84.7293 91.044 84.5253 90.42 84.4173 90.108L83.3493 87H82.1973L84.4413 93ZM93.4726 88.044C92.9806 87.264 92.0806 86.856 91.1326 86.856C90.2686 86.856 89.5366 87.156 89.0086 87.756C88.5046 88.32 88.2526 89.1 88.2526 89.988C88.2526 90.924 88.4806 91.704 88.9846 92.268C89.5006 92.868 90.2206 93.144 91.1446 93.144C92.6686 93.144 93.6286 92.424 93.8926 91.02L92.8486 90.936C92.7046 91.848 92.1526 92.28 91.1326 92.28C90.0046 92.28 89.4526 91.644 89.4286 90.324H93.9766C94.0246 89.472 93.8326 88.62 93.4726 88.044ZM91.1446 87.732C91.7926 87.732 92.2366 87.924 92.5486 88.38C92.7406 88.668 92.8606 89.124 92.8726 89.448H89.4406C89.4406 89.148 89.5126 88.74 89.7286 88.38C89.9686 87.984 90.4726 87.732 91.1446 87.732ZM97.3583 93.144C98.5703 93.144 99.8303 92.724 99.8303 91.26C99.8303 89.856 98.5943 89.652 97.3943 89.4C96.6743 89.244 95.9543 89.088 95.9543 88.536C95.9543 87.984 96.5663 87.708 97.1543 87.708C98.1023 87.708 98.6423 88.152 98.6663 88.98L99.6743 88.824C99.5423 87.36 98.4383 86.856 97.1663 86.856C96.0983 86.856 94.9463 87.36 94.9463 88.608C94.9463 89.796 95.9062 90.084 96.8783 90.336C97.7063 90.552 98.8103 90.636 98.8103 91.32C98.8103 91.956 98.3183 92.292 97.3343 92.292C96.3983 92.292 95.7863 91.776 95.7983 90.936L94.8143 91.032C94.8022 92.52 96.0143 93.144 97.3583 93.144Z" fill="#666666"/>
</svg>
