<svg width="316" height="132" viewBox="0 0 316 132" fill="none" xmlns="http://www.w3.org/2000/svg">
<path d="M100.528 2.70336C103.81 2.70336 106.107 3.68639 107.174 5.89822C108.405 7.94622 108.733 9.74845 109.061 12.7795H110.21L109.636 0L65.1633 0L64.5889 12.7795H65.7377C66.3941 6.30782 67.9531 2.70336 74.107 2.70336L84.1994 2.70336V44.1547C84.1994 48.1688 83.7892 50.6264 82.8866 51.6094C82.0661 52.5106 79.9327 53.0021 76.4865 53.0021V54.2309H98.3124V53.0021C94.7842 53.0021 92.6508 52.5106 91.8303 51.6094C91.0098 50.7083 90.5995 48.1688 90.5995 44.1547V2.70336L100.528 2.70336Z" fill="white"/>
<path d="M133.194 26.7878C133.194 20.2342 129.091 16.4659 121.87 16.4659C117.85 16.4659 114.568 17.4489 112.106 19.415C109.645 21.2991 108.414 23.511 108.414 25.9686C108.414 27.9346 109.48 29.3273 111.368 29.3273C113.583 29.3273 114.65 27.4431 114.65 23.7567C114.65 20.5619 117.029 18.5139 120.722 18.5139C123.922 18.5139 125.891 19.6607 126.629 22.2822C127.532 24.8217 127.614 26.542 127.614 30.3922C120.311 33.0956 115.06 35.6351 111.942 37.9288C108.824 40.2226 107.265 43.0079 107.265 46.2027C107.265 51.8552 110.629 55.3777 115.799 55.3777C119.655 55.3777 122.117 53.9032 127.614 49.3157C127.614 53.1659 129.255 55.3777 131.799 55.3777C134.096 55.3777 137.624 52.6744 139.676 49.7253V47.7592C137.789 49.8072 136.312 50.8722 135.163 50.8722C133.768 50.8722 133.194 49.971 133.194 45.7931V26.7878ZM127.614 46.8581C123.019 50.3806 121.296 51.1998 118.752 51.1998C115.552 51.1998 113.009 48.5784 113.009 44.5643C113.009 39.7311 117.522 36.1266 127.614 32.5221L127.614 46.8581Z" fill="white"/>
<path d="M149.63 16.4659L138.799 20.8895L139.291 21.9545C140.358 21.5449 141.342 21.2991 142.163 21.2991C144.46 21.2991 145.281 22.446 145.281 26.7058V47.5134C145.281 51.8552 144.05 53.0021 139.455 53.0021V54.2309L156.686 54.2309V53.0021C151.845 53.0021 150.86 52.019 150.86 47.5134V26.542C154.717 22.6099 158.081 20.6438 161.035 20.6438C165.056 20.6438 167.025 23.6748 167.025 29.6549V47.5134C167.025 51.8552 165.794 52.9202 161.199 53.0021V54.2309H178.512V53.0021C173.835 52.9202 172.604 51.7733 172.604 47.5134V28.1804C172.604 20.3161 169.404 16.4659 163.907 16.4659C159.968 16.4659 155.62 19.0873 150.86 24.4121V16.4659H149.63Z" fill="white"/>
<path d="M178.932 63.8974C178.932 66.355 180.573 68.3211 183.937 69.7137C187.301 71.1883 190.912 71.9255 194.604 71.9255C200.43 71.9255 205.189 70.451 209.045 67.5019C212.902 64.5528 214.789 61.4398 214.789 58.0811C214.789 52.101 211.014 49.4795 201.907 49.3976C189.189 49.3976 187.055 48.4146 187.055 46.5304C187.055 45.1378 188.122 43.4994 190.337 41.6152C191.568 42.1887 193.373 42.4344 195.589 42.4344C200.101 42.4344 203.548 41.2056 206.091 38.748C208.635 36.2904 209.866 33.3413 209.866 29.9826C209.866 27.6889 208.881 24.0844 207.65 22.3641L213.886 22.3641C215.281 22.3641 215.609 22.1183 215.609 20.8076C215.609 19.5788 215.281 19.3331 213.968 19.3331L204.86 19.3331C202.153 17.4489 199.281 16.4659 196.245 16.4659C191.896 16.4659 188.45 17.7766 185.824 20.398C183.199 22.9375 181.886 26.1324 181.886 29.8188C181.886 34.8978 184.019 38.5023 188.286 40.7141C184.265 44.1547 182.296 47.1039 182.296 49.4795C182.296 51.1179 183.527 52.019 186.235 53.2478C182.214 56.8523 178.932 61.5217 178.932 63.8974ZM195.178 18.1862C200.512 18.1862 203.794 22.5279 203.794 30.8018C203.794 37.6012 201.004 40.796 196.409 40.796C191.486 40.796 187.876 36.1266 187.876 28.0166C187.876 22.0364 190.994 18.1862 195.178 18.1862ZM188.286 53.9032C190.337 54.3947 194.932 54.6405 201.907 54.6405C209.455 54.6405 212.409 55.9512 212.409 59.1461C212.409 61.5217 211.014 63.6516 208.143 65.372C205.353 67.1742 201.825 68.0753 197.476 68.0753C189.189 68.0753 183.609 65.0443 183.609 61.4398C183.609 59.3099 185.168 56.7704 188.286 53.9032Z" fill="white"/>
<path d="M234.18 16.4659C229.339 16.4659 225.318 18.4319 221.954 22.2822C218.59 26.1324 216.949 30.8018 216.949 36.2904C216.949 41.4514 218.672 45.8751 222.036 49.7253C225.4 53.4936 229.421 55.3777 233.934 55.3777C237.872 55.3777 241.237 54.2309 243.944 52.019C246.734 49.8072 248.703 47.1858 249.77 44.2367C250.837 41.2876 251.411 38.2565 251.411 35.0616C251.411 29.9007 249.688 25.477 246.242 21.8726C242.796 18.2681 238.775 16.4659 234.18 16.4659ZM233.36 18.8415C240.17 18.8415 245.093 25.8047 245.093 38.5842C245.093 42.4344 244.355 45.7931 242.796 48.6603C241.319 51.5275 238.939 53.0021 235.575 53.0021C231.883 53.0021 228.929 51.1179 226.631 47.3496C224.416 43.5813 223.267 38.748 223.267 32.9317C223.267 24.3302 227.698 18.8415 233.36 18.8415Z" fill="white"/>
<path d="M14.113 88.6645C18.4618 89.5656 21.6618 90.0571 23.7952 90.0571C28.6362 90.0571 32.4927 88.6645 35.4466 85.8792C38.4825 83.0939 39.9595 79.5714 39.9595 75.2296C39.9595 65.9727 33.0671 60.0745 21.4977 60.0745H0L0 61.3033C3.20004 61.3033 5.25135 61.7948 6.23597 62.8597C7.2206 63.9247 7.71291 66.1365 7.71291 69.6591L7.71291 104.721C7.71291 108.079 7.2206 110.373 6.15392 111.438C5.16929 112.503 3.11799 113.077 0 113.077L0 114.305H21.8259V113.077C18.4618 113.077 16.3284 112.585 15.4258 111.602C14.5233 110.619 14.113 108.325 14.113 104.721L14.113 88.6645ZM14.113 63.5151C15.9181 63.0236 18.0515 62.7778 20.5131 62.7778C27.7337 62.7778 32.2465 67.5292 32.2465 75.6392C32.2465 79.1618 31.344 82.029 29.4568 84.3227C27.5696 86.5345 25.2721 87.6814 22.5644 87.6814C20.7592 87.6814 17.9694 87.2718 14.113 86.4526L14.113 63.5151Z" fill="white"/>
<path d="M71.4349 91.5317C71.4349 82.6843 65.8553 76.5403 57.3219 76.5403C52.3167 76.5403 48.2961 78.4245 45.2602 82.1109C42.2242 85.7973 40.7473 90.6305 40.7473 96.6107C40.7473 102.099 42.2242 106.605 45.2602 110.127C48.2961 113.65 52.0705 115.452 56.7475 115.452C60.5219 115.452 63.7219 114.06 66.2655 111.274C68.8092 108.407 70.5323 104.966 71.2707 100.789L70.2041 100.215C68.0707 106.851 64.1322 110.127 58.3885 110.127C50.5936 110.127 45.5884 103.41 45.5884 91.5317H71.4349ZM45.6704 89.3198C45.8345 86.2888 46.9012 83.8312 48.8705 81.8651C50.8397 79.899 53.0551 78.916 55.5988 78.916C60.8501 78.916 64.4604 82.7662 64.5425 89.3198H45.6704Z" fill="white"/>
<path d="M83.2779 76.5403L72.447 80.964L72.9393 82.029C74.006 81.6194 74.9906 81.3736 75.8112 81.3736C78.1086 81.3736 78.9292 82.5205 78.9292 86.7803V107.588C78.9292 111.93 77.6984 113.077 73.1034 113.077V114.305H90.3344V113.077C85.4933 113.077 84.5087 112.094 84.5087 107.588V86.6165C88.3652 82.6843 91.7293 80.7182 94.6832 80.7182C98.7038 80.7182 100.673 83.7493 100.673 89.7294V107.588C100.673 111.93 99.4422 112.995 94.8473 113.077V114.305H112.16V113.077C107.483 112.995 106.253 111.848 106.253 107.588V88.2549C106.253 80.3906 103.053 76.5403 97.555 76.5403C93.6165 76.5403 89.2678 79.1618 84.5087 84.4865V76.5403H83.2779Z" fill="white"/>
<path d="M122.264 66.4642H121.034C119.064 73.6731 116.439 76.7042 110.613 78.6703V79.899H116.685V106.031C116.685 111.848 118.982 114.797 123.495 114.797C127.434 114.797 130.552 111.684 131.946 107.014H130.634C129.895 109.39 128.008 110.865 126.121 110.865C123.249 110.865 122.264 109.226 122.264 104.065V79.899H130.88V77.6872H122.264V66.4642Z" fill="white"/>
<path d="M159.538 86.8622C159.538 80.3086 155.436 76.5403 148.215 76.5403C144.195 76.5403 140.913 77.5234 138.451 79.4894C135.989 81.3736 134.759 83.5854 134.759 86.043C134.759 88.0091 135.825 89.4017 137.713 89.4017C139.928 89.4017 140.995 87.5176 140.995 83.8312C140.995 80.6363 143.374 78.5883 147.067 78.5883C150.267 78.5883 152.236 79.7352 152.974 82.3566C153.877 84.8962 153.959 86.6165 153.959 90.4667C146.656 93.1701 141.405 95.7095 138.287 98.0033C135.169 100.297 133.61 103.082 133.61 106.277C133.61 111.93 136.974 115.452 142.143 115.452C146 115.452 148.461 113.978 153.959 109.39C153.959 113.24 155.6 115.452 158.144 115.452C160.441 115.452 163.969 112.749 166.021 109.8V107.834C164.133 109.882 162.656 110.947 161.508 110.947C160.113 110.947 159.538 110.046 159.538 105.868L159.538 86.8622ZM153.959 106.933C149.364 110.455 147.641 111.274 145.097 111.274C141.897 111.274 139.354 108.653 139.354 104.639C139.354 99.8055 143.866 96.2011 153.959 92.5966V106.933ZM147.067 72.2805H148.133L159.374 58.4361L151.744 58.4361L147.067 72.2805Z" fill="white"/>
<path d="M167.113 123.972C167.113 126.429 168.754 128.396 172.118 129.788C175.482 131.263 179.093 132 182.785 132C188.611 132 193.37 130.525 197.226 127.576C201.083 124.627 202.97 121.514 202.97 118.156C202.97 112.175 199.195 109.554 190.088 109.472C177.369 109.472 175.236 108.489 175.236 106.605C175.236 105.212 176.303 103.574 178.518 101.69C179.749 102.263 181.554 102.509 183.77 102.509C188.282 102.509 191.729 101.28 194.272 98.8225C196.816 96.3649 198.047 93.4158 198.047 90.0571C198.047 87.7634 197.062 84.1589 195.831 82.4386H202.067C203.462 82.4386 203.79 82.1928 203.79 80.8821C203.79 79.6533 203.462 79.4075 202.149 79.4075H193.041C190.334 77.5234 187.462 76.5403 184.426 76.5403C180.077 76.5403 176.631 77.8511 174.005 80.4725C171.38 83.012 170.067 86.2069 170.067 89.8933C170.067 94.9723 172.2 98.5768 176.467 100.789C172.446 104.229 170.477 107.178 170.477 109.554C170.477 111.192 171.708 112.094 174.416 113.322C170.395 116.927 167.113 121.596 167.113 123.972ZM183.359 78.2607C188.693 78.2607 191.975 82.6024 191.975 90.8763C191.975 97.6756 189.185 100.87 184.59 100.87C179.667 100.87 176.057 96.2011 176.057 88.091C176.057 82.1109 179.175 78.2607 183.359 78.2607ZM176.467 113.978C178.518 114.469 183.113 114.715 190.088 114.715C197.636 114.715 200.59 116.026 200.59 119.221C200.59 121.596 199.195 123.726 196.324 125.446C193.534 127.249 190.006 128.15 185.657 128.15C177.369 128.15 171.79 125.119 171.79 121.514C171.79 119.384 173.349 116.845 176.467 113.978Z" fill="white"/>
<path d="M222.361 76.5403C217.52 76.5403 213.499 78.5064 210.135 82.3566C206.771 86.2069 205.13 90.8763 205.13 96.3649C205.13 101.526 206.853 105.95 210.217 109.8C213.581 113.568 217.602 115.452 222.115 115.452C226.053 115.452 229.418 114.305 232.125 112.094C234.915 109.882 236.884 107.26 237.951 104.311C239.018 101.362 239.592 98.331 239.592 95.1361C239.592 89.9752 237.869 85.5515 234.423 81.947C230.977 78.3426 226.956 76.5403 222.361 76.5403ZM221.54 78.916C228.351 78.916 233.274 85.8792 233.274 98.6587C233.274 102.509 232.536 105.868 230.977 108.735C229.5 111.602 227.12 113.077 223.756 113.077C220.064 113.077 217.11 111.192 214.812 107.424C212.597 103.656 211.448 98.8225 211.448 93.0062C211.448 84.4046 215.879 78.916 221.54 78.916Z" fill="white"/>
<path d="M251.501 76.5403L240.67 80.964L241.163 82.029C242.229 81.6194 243.214 81.3736 244.034 81.3736C246.332 81.3736 247.152 82.5205 247.152 86.7803L247.152 107.588C247.152 111.93 245.922 113.077 241.327 113.077V114.305H258.558V113.077C253.717 113.077 252.732 112.094 252.732 107.588L252.732 86.6165C256.588 82.6843 259.953 80.7182 262.906 80.7182C266.927 80.7182 268.896 83.7493 268.896 89.7294V107.588C268.896 111.93 267.665 112.995 263.07 113.077V114.305H280.384V113.077C275.707 112.995 274.476 111.848 274.476 107.588V88.2549C274.476 80.3906 271.276 76.5403 265.778 76.5403C261.84 76.5403 257.491 79.1618 252.732 84.4865V76.5403H251.501Z" fill="white"/>
<path d="M298.769 76.5403C293.928 76.5403 289.907 78.5064 286.543 82.3566C283.179 86.2069 281.538 90.8763 281.538 96.3649C281.538 101.526 283.261 105.95 286.625 109.8C289.989 113.568 294.01 115.452 298.523 115.452C302.461 115.452 305.826 114.305 308.533 112.094C311.323 109.882 313.292 107.26 314.359 104.311C315.426 101.362 316 98.331 316 95.1361C316 89.9752 314.277 85.5515 310.831 81.947C307.385 78.3426 303.364 76.5403 298.769 76.5403ZM297.948 78.916C304.759 78.916 309.682 85.8792 309.682 98.6587C309.682 102.509 308.944 105.868 307.385 108.735C305.908 111.602 303.528 113.077 300.164 113.077C296.472 113.077 293.518 111.192 291.22 107.424C289.005 103.656 287.856 98.8225 287.856 93.0062C287.856 84.4046 292.287 78.916 297.948 78.916Z" fill="white"/>
</svg>
