<svg width="1376" height="193" viewBox="0 0 1376 193" fill="none" xmlns="http://www.w3.org/2000/svg">
<path d="M94.3902 11.3909C103.01 11.3909 109.044 13.9699 111.846 19.7728C115.078 25.1459 115.94 29.8742 116.802 37.8263H119.819L118.311 4.29844H1.50851L0 37.8263H3.01702C4.74105 20.8474 8.83559 11.3909 24.9983 11.3909H51.5051V120.141C51.5051 130.673 50.4276 137.12 48.0571 139.699C45.9021 142.063 40.299 143.353 31.2479 143.353V146.577H88.5716V143.353C79.305 143.353 73.7019 142.063 71.5469 139.699C69.3919 137.335 68.3144 130.673 68.3144 120.141V11.3909H94.3902Z" fill="white"/>
<path d="M180.184 74.578C180.184 57.3842 169.409 47.4978 150.444 47.4978C139.885 47.4978 131.265 50.0768 124.8 55.235C118.335 60.1782 115.102 65.9811 115.102 72.4287C115.102 77.5869 117.904 81.2405 122.86 81.2405C128.679 81.2405 131.48 76.2973 131.48 66.6258C131.48 58.2439 137.73 52.8708 147.427 52.8708C155.832 52.8708 161.004 55.8797 162.944 62.7572C165.314 69.4198 165.53 73.9332 165.53 84.0345C146.35 91.127 132.558 97.7895 124.369 103.807C116.18 109.825 112.085 117.133 112.085 125.514C112.085 140.344 120.921 149.586 134.497 149.586C144.626 149.586 151.091 145.717 165.53 133.682C165.53 143.783 169.84 149.586 176.52 149.586C182.554 149.586 191.821 142.493 197.209 134.756V129.598C192.252 134.971 188.373 137.765 185.356 137.765C181.692 137.765 180.184 135.401 180.184 124.44V74.578ZM165.53 127.234C153.461 136.476 148.936 138.625 142.255 138.625C133.851 138.625 127.17 131.747 127.17 121.216C127.17 108.536 139.023 99.0791 165.53 89.6225V127.234Z" fill="white"/>
<path d="M223.352 47.4978L194.905 59.1036L196.198 61.8976C199 60.8229 201.586 60.1782 203.741 60.1782C209.775 60.1782 211.93 63.1871 211.93 74.363V128.953C211.93 140.344 208.698 143.353 196.629 143.353V146.577H241.885V143.353C229.17 143.353 226.584 140.774 226.584 128.953V73.9332C236.713 63.6169 245.549 58.4588 253.307 58.4588C263.866 58.4588 269.038 66.4109 269.038 82.1002V128.953C269.038 140.344 265.806 143.138 253.738 143.353V146.577H299.209V143.353C286.925 143.138 283.693 140.129 283.693 128.953V78.2316C283.693 57.5991 275.288 47.4978 260.849 47.4978C250.505 47.4978 239.083 54.3753 226.584 68.3452V47.4978H223.352Z" fill="white"/>
<path d="M300.311 171.938C300.311 178.385 304.621 183.543 313.457 187.197C322.293 191.066 331.775 193 341.472 193C356.773 193 369.272 189.131 379.401 181.394C389.53 173.657 394.486 165.49 394.486 156.678C394.486 140.989 384.573 134.111 360.652 133.896C327.249 133.896 321.646 131.317 321.646 126.374C321.646 122.72 324.448 118.422 330.266 113.479C333.499 114.983 338.24 115.628 344.059 115.628C355.911 115.628 364.962 112.404 371.643 105.957C378.323 99.5089 381.556 91.7717 381.556 82.9599C381.556 76.9421 378.97 67.4855 375.737 62.9722H392.116C395.779 62.9722 396.641 62.3274 396.641 58.8886C396.641 55.6648 395.779 55.0201 392.331 55.0201H368.41C361.299 50.0768 353.756 47.4978 345.783 47.4978C334.361 47.4978 325.31 50.9365 318.414 57.814C311.518 64.4766 308.07 72.8586 308.07 82.5301C308.07 95.8552 313.673 105.312 324.879 111.115C314.319 120.141 309.147 127.879 309.147 134.111C309.147 138.41 312.38 140.774 319.491 143.998C308.932 153.454 300.311 165.705 300.311 171.938ZM342.981 52.0111C356.989 52.0111 365.609 63.402 365.609 85.1091C365.609 102.948 358.282 111.33 346.214 111.33C333.283 111.33 323.801 99.0791 323.801 77.8018C323.801 62.1125 331.99 52.0111 342.981 52.0111ZM324.879 145.717C330.266 147.007 342.334 147.651 360.652 147.651C380.478 147.651 388.237 151.09 388.237 159.472C388.237 165.705 384.573 171.293 377.03 175.806C369.703 180.535 360.437 182.899 349.015 182.899C327.249 182.899 312.595 174.947 312.595 165.49C312.595 159.902 316.69 153.239 324.879 145.717Z" fill="white"/>
<path d="M445.415 47.4978C432.701 47.4978 422.141 52.6559 413.306 62.7572C404.47 72.8586 400.16 85.1091 400.16 99.5089C400.16 113.049 404.685 124.655 413.521 134.756C422.357 144.643 432.916 149.586 444.769 149.586C455.113 149.586 463.949 146.577 471.06 140.774C478.387 134.971 483.559 128.094 486.361 120.356C489.163 112.619 490.671 104.667 490.671 96.2851C490.671 82.745 486.146 71.1392 477.094 61.6826C468.043 52.2261 457.484 47.4978 445.415 47.4978ZM443.26 53.7305C461.147 53.7305 474.077 71.9989 474.077 105.527C474.077 115.628 472.138 124.44 468.043 131.962C464.164 139.484 457.915 143.353 449.079 143.353C439.381 143.353 431.623 138.41 425.589 128.523C419.771 118.637 416.754 105.957 416.754 90.6971C416.754 68.1303 428.391 53.7305 443.26 53.7305Z" fill="white"/>
<path d="M583.122 79.3062C594.543 81.6704 602.948 82.9599 608.551 82.9599C621.266 82.9599 631.394 79.3062 639.152 71.9989C647.126 64.6915 651.005 55.4499 651.005 44.059C651.005 19.7728 632.903 4.29844 602.517 4.29844H546.055V7.52228C554.46 7.52228 559.847 8.81181 562.433 11.6058C565.019 14.3998 566.313 20.2027 566.313 29.4443V121.431C566.313 130.243 565.019 136.261 562.218 139.055C559.632 141.849 554.244 143.353 546.055 143.353V146.577H603.379V143.353C594.543 143.353 588.94 142.063 586.57 139.484C584.199 136.905 583.122 130.888 583.122 121.431V79.3062ZM583.122 13.3252C587.863 12.0356 593.466 11.3909 599.931 11.3909C618.895 11.3909 630.748 23.8563 630.748 45.1336C630.748 54.3753 628.377 61.8976 623.421 67.9154C618.464 73.7183 612.43 76.7272 605.318 76.7272C600.577 76.7272 593.25 75.6526 583.122 73.5033V13.3252Z" fill="white"/>
<path d="M733.672 86.8285C733.672 63.6169 719.018 47.4978 696.606 47.4978C683.46 47.4978 672.901 52.441 664.927 62.1125C656.953 71.784 653.074 84.4644 653.074 100.154C653.074 114.553 656.953 126.374 664.927 135.616C672.901 144.857 682.814 149.586 695.097 149.586C705.01 149.586 713.415 145.932 720.096 138.625C726.776 131.102 731.302 122.076 733.241 111.115L730.44 109.61C724.837 127.019 714.492 135.616 699.407 135.616C678.935 135.616 665.789 117.992 665.789 86.8285H733.672ZM666.004 81.0256C666.435 73.0735 669.237 66.6258 674.409 61.4677C679.581 56.3096 685.4 53.7305 692.08 53.7305C705.872 53.7305 715.355 63.8319 715.57 81.0256H666.004Z" fill="white"/>
<path d="M764.777 47.4978L736.331 59.1036L737.624 61.8976C740.425 60.8229 743.011 60.1782 745.166 60.1782C751.2 60.1782 753.355 63.1871 753.355 74.363V128.953C753.355 140.344 750.123 143.353 738.055 143.353V146.577H783.31V143.353C770.596 143.353 768.01 140.774 768.01 128.953V73.9332C778.138 63.6169 786.974 58.4588 794.732 58.4588C805.292 58.4588 810.464 66.4109 810.464 82.1002V128.953C810.464 140.344 807.231 143.138 795.163 143.353V146.577H840.634V143.353C828.35 143.138 825.118 140.129 825.118 128.953V78.2316C825.118 57.5991 816.713 47.4978 802.274 47.4978C791.93 47.4978 780.509 54.3753 768.01 68.3452V47.4978H764.777Z" fill="white"/>
<path d="M867.171 21.0624H863.939C858.767 39.9755 851.87 47.9276 836.57 53.0857V56.3096H852.517V124.87C852.517 140.129 858.551 147.866 870.404 147.866C880.748 147.866 888.937 139.699 892.6 127.449H889.152C887.213 133.682 882.256 137.55 877.3 137.55C869.757 137.55 867.171 133.252 867.171 119.712V56.3096H889.799V50.5067H867.171V21.0624Z" fill="white"/>
<path d="M965.068 74.578C965.068 57.3842 954.293 47.4978 935.329 47.4978C924.769 47.4978 916.149 50.0768 909.684 55.235C903.219 60.1782 899.987 65.9811 899.987 72.4287C899.987 77.5869 902.788 81.2405 907.745 81.2405C913.563 81.2405 916.365 76.2973 916.365 66.6258C916.365 58.2439 922.614 52.8708 932.312 52.8708C940.716 52.8708 945.889 55.8797 947.828 62.7572C950.199 69.4198 950.414 73.9332 950.414 84.0345C931.234 91.127 917.442 97.7895 909.253 103.807C901.064 109.825 896.969 117.133 896.969 125.514C896.969 140.344 905.805 149.586 919.382 149.586C929.51 149.586 935.976 145.717 950.414 133.682C950.414 143.783 954.724 149.586 961.405 149.586C967.439 149.586 976.705 142.493 982.093 134.756V129.598C977.136 134.971 973.257 137.765 970.24 137.765C966.577 137.765 965.068 135.401 965.068 124.44V74.578ZM950.414 127.234C938.346 136.476 933.82 138.625 927.14 138.625C918.735 138.625 912.055 131.747 912.055 121.216C912.055 108.536 923.907 99.0791 950.414 89.6225V127.234ZM932.312 36.3218H935.113L964.637 0H944.596L932.312 36.3218Z" fill="white"/>
<path d="M984.962 171.938C984.962 178.385 989.272 183.543 998.108 187.197C1006.94 191.066 1016.43 193 1026.12 193C1041.42 193 1053.92 189.131 1064.05 181.394C1074.18 173.657 1079.14 165.49 1079.14 156.678C1079.14 140.989 1069.22 134.111 1045.3 133.896C1011.9 133.896 1006.3 131.317 1006.3 126.374C1006.3 122.72 1009.1 118.422 1014.92 113.479C1018.15 114.983 1022.89 115.628 1028.71 115.628C1040.56 115.628 1049.61 112.404 1056.29 105.957C1062.97 99.5089 1066.21 91.7717 1066.21 82.9599C1066.21 76.9421 1063.62 67.4855 1060.39 62.9722H1076.77C1080.43 62.9722 1081.29 62.3274 1081.29 58.8886C1081.29 55.6648 1080.43 55.0201 1076.98 55.0201H1053.06C1045.95 50.0768 1038.41 47.4978 1030.43 47.4978C1019.01 47.4978 1009.96 50.9365 1003.06 57.814C996.168 64.4766 992.72 72.8586 992.72 82.5301C992.72 95.8552 998.323 105.312 1009.53 111.115C998.97 120.141 993.798 127.879 993.798 134.111C993.798 138.41 997.03 140.774 1004.14 143.998C993.582 153.454 984.962 165.705 984.962 171.938ZM1027.63 52.0111C1041.64 52.0111 1050.26 63.402 1050.26 85.1091C1050.26 102.948 1042.93 111.33 1030.86 111.33C1017.93 111.33 1008.45 99.0791 1008.45 77.8018C1008.45 62.1125 1016.64 52.0111 1027.63 52.0111ZM1009.53 145.717C1014.92 147.007 1026.98 147.651 1045.3 147.651C1065.13 147.651 1072.89 151.09 1072.89 159.472C1072.89 165.705 1069.22 171.293 1061.68 175.806C1054.35 180.535 1045.09 182.899 1033.67 182.899C1011.9 182.899 997.246 174.947 997.246 165.49C997.246 159.902 1001.34 153.239 1009.53 145.717Z" fill="white"/>
<path d="M1130.07 47.4978C1117.35 47.4978 1106.79 52.6559 1097.96 62.7572C1089.12 72.8586 1084.81 85.1091 1084.81 99.5089C1084.81 113.049 1089.34 124.655 1098.17 134.756C1107.01 144.643 1117.57 149.586 1129.42 149.586C1139.76 149.586 1148.6 146.577 1155.71 140.774C1163.04 134.971 1168.21 128.094 1171.01 120.356C1173.81 112.619 1175.32 104.667 1175.32 96.2851C1175.32 82.745 1170.8 71.1392 1161.74 61.6826C1152.69 52.2261 1142.13 47.4978 1130.07 47.4978ZM1127.91 53.7305C1145.8 53.7305 1158.73 71.9989 1158.73 105.527C1158.73 115.628 1156.79 124.44 1152.69 131.962C1148.81 139.484 1142.57 143.353 1133.73 143.353C1124.03 143.353 1116.27 138.41 1110.24 128.523C1104.42 118.637 1101.4 105.957 1101.4 90.6971C1101.4 68.1303 1113.04 53.7305 1127.91 53.7305Z" fill="white"/>
<path d="M1206.6 47.4978L1178.15 59.1036L1179.45 61.8976C1182.25 60.8229 1184.83 60.1782 1186.99 60.1782C1193.02 60.1782 1195.18 63.1871 1195.18 74.363V128.953C1195.18 140.344 1191.95 143.353 1179.88 143.353V146.577H1225.13V143.353C1212.42 143.353 1209.83 140.774 1209.83 128.953V73.9332C1219.96 63.6169 1228.8 58.4588 1236.55 58.4588C1247.11 58.4588 1252.29 66.4109 1252.29 82.1002V128.953C1252.29 140.344 1249.05 143.138 1236.99 143.353V146.577H1282.46V143.353C1270.17 143.138 1266.94 140.129 1266.94 128.953V78.2316C1266.94 57.5991 1258.54 47.4978 1244.1 47.4978C1233.75 47.4978 1222.33 54.3753 1209.83 68.3452V47.4978H1206.6Z" fill="white"/>
<path d="M1330.74 47.4978C1318.03 47.4978 1307.47 52.6559 1298.63 62.7572C1289.8 72.8586 1285.49 85.1091 1285.49 99.5089C1285.49 113.049 1290.01 124.655 1298.85 134.756C1307.69 144.643 1318.25 149.586 1330.1 149.586C1340.44 149.586 1349.28 146.577 1356.39 140.774C1363.72 134.971 1368.89 128.094 1371.69 120.356C1374.49 112.619 1376 104.667 1376 96.2851C1376 82.745 1371.47 71.1392 1362.42 61.6826C1353.37 52.2261 1342.81 47.4978 1330.74 47.4978ZM1328.59 53.7305C1346.48 53.7305 1359.41 71.9989 1359.41 105.527C1359.41 115.628 1357.47 124.44 1353.37 131.962C1349.49 139.484 1343.24 143.353 1334.41 143.353C1324.71 143.353 1316.95 138.41 1310.92 128.523C1305.1 118.637 1302.08 105.957 1302.08 90.6971C1302.08 68.1303 1313.72 53.7305 1328.59 53.7305Z" fill="white"/>
</svg>
